<svg xmlns="http://www.w3.org/2000/svg" width="21.001" height="26.182" viewBox="0 0 21.001 26.182">
    <g transform="translate(-2042.954 -2657.86)">
        <g>
            <g>
                <path fill="#3097ff" d="M2053.449 2657.86a10.508 10.508 0 0 0-10.495 10.495 10.37 10.37 0 0 0 .187 1.97c.006.039.027.153.071.351a10.373 10.373 0 0 0 .7 2.07c1.131 2.662 3.617 6.752 9.073 11.132a.746.746 0 0 0 .934 0c5.45-4.38 7.942-8.47 9.073-11.132a10.194 10.194 0 0 0 .7-2.07c.044-.2.066-.312.072-.351a10.762 10.762 0 0 0 .187-1.97 10.525 10.525 0 0 0-10.502-10.495z" transform="translate(2042.954 2657.86) translate(-2042.954 -2657.86)"/>
            </g>
        </g>
        <circle cx="6.856" cy="6.856" r="6.856" fill="#fff" transform="translate(2046.598 2661.421)"/>
    </g>
</svg>
